<mxfile host="app.diagrams.net" modified="2023-12-20T07:08:44.202Z" agent="Mozilla/5.0 (Windows NT 10.0; Win64; x64) AppleWebKit/537.36 (KHTML, like Gecko) Chrome/120.0.0.0 Safari/537.36 Edg/120.0.0.0" etag="aFPPzkvjMJRFr31ewmLb" version="22.1.11" type="device">
  <diagram name="第 1 页" id="07HoUpra6Ypozmy9lJqt">
    <mxGraphModel dx="1002" dy="569" grid="1" gridSize="10" guides="1" tooltips="1" connect="1" arrows="1" fold="1" page="1" pageScale="1" pageWidth="827" pageHeight="1169" math="0" shadow="0">
      <root>
        <mxCell id="0" />
        <mxCell id="1" parent="0" />
        <mxCell id="-uE1xQczvVhMCsQwjyGT-2" value="" style="shape=umlLifeline;perimeter=lifelinePerimeter;whiteSpace=wrap;html=1;container=1;dropTarget=0;collapsible=0;recursiveResize=0;outlineConnect=0;portConstraint=eastwest;newEdgeStyle={&quot;curved&quot;:0,&quot;rounded&quot;:0};participant=umlActor;" parent="1" vertex="1">
          <mxGeometry x="170" y="90" width="20" height="880" as="geometry" />
        </mxCell>
        <mxCell id="-uE1xQczvVhMCsQwjyGT-37" value="" style="html=1;points=[[0,0,0,0,5],[0,1,0,0,-5],[1,0,0,0,5],[1,1,0,0,-5]];perimeter=orthogonalPerimeter;outlineConnect=0;targetShapes=umlLifeline;portConstraint=eastwest;newEdgeStyle={&quot;curved&quot;:0,&quot;rounded&quot;:0};" parent="-uE1xQczvVhMCsQwjyGT-2" vertex="1">
          <mxGeometry x="5" y="90" width="10" height="700" as="geometry" />
        </mxCell>
        <mxCell id="-uE1xQczvVhMCsQwjyGT-3" value="pharmacist" style="text;html=1;align=center;verticalAlign=middle;resizable=0;points=[];autosize=1;strokeColor=none;fillColor=none;" parent="1" vertex="1">
          <mxGeometry x="140" y="60" width="80" height="30" as="geometry" />
        </mxCell>
        <mxCell id="-uE1xQczvVhMCsQwjyGT-4" value="System" style="shape=umlLifeline;perimeter=lifelinePerimeter;whiteSpace=wrap;html=1;container=1;dropTarget=0;collapsible=0;recursiveResize=0;outlineConnect=0;portConstraint=eastwest;newEdgeStyle={&quot;edgeStyle&quot;:&quot;elbowEdgeStyle&quot;,&quot;elbow&quot;:&quot;vertical&quot;,&quot;curved&quot;:0,&quot;rounded&quot;:0};" parent="1" vertex="1">
          <mxGeometry x="280" y="70" width="100" height="920" as="geometry" />
        </mxCell>
        <mxCell id="-uE1xQczvVhMCsQwjyGT-35" value="" style="html=1;points=[[0,0,0,0,5],[0,1,0,0,-5],[1,0,0,0,5],[1,1,0,0,-5]];perimeter=orthogonalPerimeter;outlineConnect=0;targetShapes=umlLifeline;portConstraint=eastwest;newEdgeStyle={&quot;curved&quot;:0,&quot;rounded&quot;:0};" parent="-uE1xQczvVhMCsQwjyGT-4" vertex="1">
          <mxGeometry x="45" y="110" width="10" height="700" as="geometry" />
        </mxCell>
        <mxCell id="-uE1xQczvVhMCsQwjyGT-5" value="inventory&lt;br&gt;management" style="shape=umlLifeline;perimeter=lifelinePerimeter;whiteSpace=wrap;html=1;container=1;dropTarget=0;collapsible=0;recursiveResize=0;outlineConnect=0;portConstraint=eastwest;newEdgeStyle={&quot;edgeStyle&quot;:&quot;elbowEdgeStyle&quot;,&quot;elbow&quot;:&quot;vertical&quot;,&quot;curved&quot;:0,&quot;rounded&quot;:0};" parent="1" vertex="1">
          <mxGeometry x="460" y="70" width="100" height="900" as="geometry" />
        </mxCell>
        <mxCell id="-uE1xQczvVhMCsQwjyGT-36" value="" style="html=1;points=[[0,0,0,0,5],[0,1,0,0,-5],[1,0,0,0,5],[1,1,0,0,-5]];perimeter=orthogonalPerimeter;outlineConnect=0;targetShapes=umlLifeline;portConstraint=eastwest;newEdgeStyle={&quot;curved&quot;:0,&quot;rounded&quot;:0};" parent="-uE1xQczvVhMCsQwjyGT-5" vertex="1">
          <mxGeometry x="45" y="145" width="10" height="635" as="geometry" />
        </mxCell>
        <mxCell id="-uE1xQczvVhMCsQwjyGT-6" value="" style="endArrow=classic;html=1;rounded=0;" parent="1" edge="1">
          <mxGeometry width="50" height="50" relative="1" as="geometry">
            <mxPoint x="179.5" y="190" as="sourcePoint" />
            <mxPoint x="329.5" y="190" as="targetPoint" />
          </mxGeometry>
        </mxCell>
        <mxCell id="-uE1xQczvVhMCsQwjyGT-7" value="check the invenatory" style="edgeLabel;html=1;align=center;verticalAlign=middle;resizable=0;points=[];" parent="-uE1xQczvVhMCsQwjyGT-6" vertex="1" connectable="0">
          <mxGeometry x="-0.2227" y="1" relative="1" as="geometry">
            <mxPoint x="13" as="offset" />
          </mxGeometry>
        </mxCell>
        <mxCell id="-uE1xQczvVhMCsQwjyGT-8" value="" style="endArrow=classic;html=1;rounded=0;" parent="1" target="-uE1xQczvVhMCsQwjyGT-5" edge="1">
          <mxGeometry width="50" height="50" relative="1" as="geometry">
            <mxPoint x="329.5" y="220" as="sourcePoint" />
            <mxPoint x="449.5" y="220" as="targetPoint" />
          </mxGeometry>
        </mxCell>
        <mxCell id="-uE1xQczvVhMCsQwjyGT-9" value="request the &lt;br&gt;inventory" style="edgeLabel;html=1;align=center;verticalAlign=middle;resizable=0;points=[];" parent="-uE1xQczvVhMCsQwjyGT-8" vertex="1" connectable="0">
          <mxGeometry x="0.1383" y="4" relative="1" as="geometry">
            <mxPoint as="offset" />
          </mxGeometry>
        </mxCell>
        <mxCell id="-uE1xQczvVhMCsQwjyGT-10" value="frame" style="shape=umlFrame;whiteSpace=wrap;html=1;pointerEvents=0;" parent="1" vertex="1">
          <mxGeometry x="40" y="240" width="650" height="300" as="geometry" />
        </mxCell>
        <mxCell id="-uE1xQczvVhMCsQwjyGT-11" value="" style="endArrow=none;dashed=1;html=1;rounded=0;entryX=0.996;entryY=0.527;entryDx=0;entryDy=0;entryPerimeter=0;exitX=0.001;exitY=0.535;exitDx=0;exitDy=0;exitPerimeter=0;" parent="1" source="-uE1xQczvVhMCsQwjyGT-10" target="-uE1xQczvVhMCsQwjyGT-10" edge="1">
          <mxGeometry width="50" height="50" relative="1" as="geometry">
            <mxPoint y="430" as="sourcePoint" />
            <mxPoint x="50" y="380" as="targetPoint" />
          </mxGeometry>
        </mxCell>
        <mxCell id="-uE1xQczvVhMCsQwjyGT-12" value="if &lt;br&gt;inventory &amp;gt;25000&lt;br&gt;(enough)" style="text;html=1;align=center;verticalAlign=middle;resizable=0;points=[];autosize=1;strokeColor=none;fillColor=none;" parent="1" vertex="1">
          <mxGeometry x="50" y="295" width="120" height="60" as="geometry" />
        </mxCell>
        <mxCell id="-uE1xQczvVhMCsQwjyGT-13" value="the inventory is enough" style="html=1;verticalAlign=bottom;endArrow=open;dashed=1;endSize=8;curved=0;rounded=0;" parent="1" edge="1">
          <mxGeometry relative="1" as="geometry">
            <mxPoint x="509.5" y="290" as="sourcePoint" />
            <mxPoint x="329.5" y="290" as="targetPoint" />
          </mxGeometry>
        </mxCell>
        <mxCell id="-uE1xQczvVhMCsQwjyGT-17" value="the inventory is not enough" style="html=1;verticalAlign=bottom;endArrow=open;dashed=1;endSize=8;curved=0;rounded=0;" parent="1" target="-uE1xQczvVhMCsQwjyGT-4" edge="1">
          <mxGeometry relative="1" as="geometry">
            <mxPoint x="510" y="450" as="sourcePoint" />
            <mxPoint x="430" y="450" as="targetPoint" />
          </mxGeometry>
        </mxCell>
        <mxCell id="-uE1xQczvVhMCsQwjyGT-18" value="if&lt;br&gt;inventory&amp;lt;=25000&lt;br&gt;(not enough)" style="text;html=1;align=center;verticalAlign=middle;resizable=0;points=[];autosize=1;strokeColor=none;fillColor=none;" parent="1" vertex="1">
          <mxGeometry x="50" y="430" width="120" height="60" as="geometry" />
        </mxCell>
        <mxCell id="-uE1xQczvVhMCsQwjyGT-22" value="record inventory" style="html=1;verticalAlign=bottom;endArrow=open;dashed=1;endSize=8;curved=0;rounded=0;" parent="1" target="-uE1xQczvVhMCsQwjyGT-2" edge="1">
          <mxGeometry relative="1" as="geometry">
            <mxPoint x="330" y="340" as="sourcePoint" />
            <mxPoint x="250" y="340" as="targetPoint" />
          </mxGeometry>
        </mxCell>
        <mxCell id="-uE1xQczvVhMCsQwjyGT-23" value="stock as needed" style="html=1;verticalAlign=bottom;endArrow=open;dashed=1;endSize=8;curved=0;rounded=0;" parent="1" target="-uE1xQczvVhMCsQwjyGT-2" edge="1">
          <mxGeometry relative="1" as="geometry">
            <mxPoint x="330" y="500" as="sourcePoint" />
            <mxPoint x="250" y="500" as="targetPoint" />
          </mxGeometry>
        </mxCell>
        <mxCell id="-uE1xQczvVhMCsQwjyGT-24" value="" style="endArrow=classic;html=1;rounded=0;" parent="1" edge="1">
          <mxGeometry width="50" height="50" relative="1" as="geometry">
            <mxPoint x="179.5" y="585" as="sourcePoint" />
            <mxPoint x="329.5" y="585" as="targetPoint" />
          </mxGeometry>
        </mxCell>
        <mxCell id="-uE1xQczvVhMCsQwjyGT-25" value="monitor the dates" style="edgeLabel;html=1;align=center;verticalAlign=middle;resizable=0;points=[];" parent="-uE1xQczvVhMCsQwjyGT-24" vertex="1" connectable="0">
          <mxGeometry x="0.1107" y="1" relative="1" as="geometry">
            <mxPoint as="offset" />
          </mxGeometry>
        </mxCell>
        <mxCell id="-uE1xQczvVhMCsQwjyGT-26" value="" style="endArrow=classic;html=1;rounded=0;" parent="1" edge="1">
          <mxGeometry width="50" height="50" relative="1" as="geometry">
            <mxPoint x="330" y="620" as="sourcePoint" />
            <mxPoint x="510" y="620" as="targetPoint" />
          </mxGeometry>
        </mxCell>
        <mxCell id="-uE1xQczvVhMCsQwjyGT-27" value="request for checking&lt;br&gt;dates" style="edgeLabel;html=1;align=center;verticalAlign=middle;resizable=0;points=[];" parent="-uE1xQczvVhMCsQwjyGT-26" vertex="1" connectable="0">
          <mxGeometry x="0.0533" y="3" relative="1" as="geometry">
            <mxPoint as="offset" />
          </mxGeometry>
        </mxCell>
        <mxCell id="-uE1xQczvVhMCsQwjyGT-28" value="frame" style="shape=umlFrame;whiteSpace=wrap;html=1;pointerEvents=0;" parent="1" vertex="1">
          <mxGeometry x="40" y="650" width="650" height="260" as="geometry" />
        </mxCell>
        <mxCell id="-uE1xQczvVhMCsQwjyGT-29" value="" style="endArrow=none;dashed=1;html=1;rounded=0;entryX=1.005;entryY=0.486;entryDx=0;entryDy=0;entryPerimeter=0;" parent="1" target="-uE1xQczvVhMCsQwjyGT-28" edge="1">
          <mxGeometry width="50" height="50" relative="1" as="geometry">
            <mxPoint x="40" y="776" as="sourcePoint" />
            <mxPoint x="180" y="750" as="targetPoint" />
          </mxGeometry>
        </mxCell>
        <mxCell id="-uE1xQczvVhMCsQwjyGT-30" value="The drug has a &lt;br&gt;long expiration dates&lt;br&gt;&amp;gt;365 days" style="text;html=1;align=center;verticalAlign=middle;resizable=0;points=[];autosize=1;strokeColor=none;fillColor=none;" parent="1" vertex="1">
          <mxGeometry x="45" y="690" width="130" height="60" as="geometry" />
        </mxCell>
        <mxCell id="-uE1xQczvVhMCsQwjyGT-31" value="the drugs has long&lt;br&gt;&lt;div&gt;expiration dates&lt;/div&gt;" style="html=1;verticalAlign=bottom;endArrow=open;dashed=1;endSize=8;curved=0;rounded=0;" parent="1" target="-uE1xQczvVhMCsQwjyGT-4" edge="1">
          <mxGeometry relative="1" as="geometry">
            <mxPoint x="510" y="710" as="sourcePoint" />
            <mxPoint x="430" y="710" as="targetPoint" />
          </mxGeometry>
        </mxCell>
        <mxCell id="-uE1xQczvVhMCsQwjyGT-32" value="Medicine is &lt;br&gt;about to expire&amp;nbsp;" style="html=1;verticalAlign=bottom;endArrow=open;dashed=1;endSize=8;curved=0;rounded=0;" parent="1" target="-uE1xQczvVhMCsQwjyGT-4" edge="1">
          <mxGeometry relative="1" as="geometry">
            <mxPoint x="510" y="840" as="sourcePoint" />
            <mxPoint x="430" y="840" as="targetPoint" />
          </mxGeometry>
        </mxCell>
        <mxCell id="-uE1xQczvVhMCsQwjyGT-33" value="need to refill medicine" style="html=1;verticalAlign=bottom;endArrow=open;dashed=1;endSize=8;curved=0;rounded=0;" parent="1" target="-uE1xQczvVhMCsQwjyGT-2" edge="1">
          <mxGeometry relative="1" as="geometry">
            <mxPoint x="330" y="870" as="sourcePoint" />
            <mxPoint x="250" y="870" as="targetPoint" />
          </mxGeometry>
        </mxCell>
        <mxCell id="-uE1xQczvVhMCsQwjyGT-34" value="Medicine is &lt;br&gt;about to expire&lt;br style=&quot;border-color: var(--border-color);&quot;&gt;&amp;lt;365 days" style="text;html=1;align=center;verticalAlign=middle;resizable=0;points=[];autosize=1;strokeColor=none;fillColor=none;" parent="1" vertex="1">
          <mxGeometry x="60" y="810" width="100" height="60" as="geometry" />
        </mxCell>
      </root>
    </mxGraphModel>
  </diagram>
</mxfile>
